<svg width="56" height="57" xmlns="http://www.w3.org/2000/svg" xmlns:xlink="http://www.w3.org/1999/xlink" xml:space="preserve" overflow="hidden"><g transform="translate(-465 -325)"><path d="M28 5.83333C15.75 5.83333 5.83333 15.75 5.83333 28 5.83333 40.25 15.75 50.1667 28 50.1667 40.25 50.1667 50.1667 40.25 50.1667 28 50.1667 15.75 40.25 5.83333 28 5.83333ZM28 49C16.3917 49 7 39.6083 7 28 7 16.3917 16.3917 7 28 7 39.6083 7 49 16.3917 49 28 49 39.6083 39.6083 49 28 49Z" transform="matrix(1 0 0 1.01786 465 325)"/><path d="M14.9917 18.9C18.375 19.8917 21.9917 18.7833 24.2667 16.1583 24.5 15.925 24.4417 15.5167 24.2083 15.3417 23.975 15.1667 23.5667 15.1667 23.3917 15.4 21.4083 17.7333 18.2583 18.6667 15.3417 17.7917 15.05 17.675 14.7 17.85 14.5833 18.2 14.525 18.4917 14.6417 18.7833 14.9917 18.9 14.9917 18.9 14.9917 18.9 14.9917 18.9Z" transform="matrix(1 0 0 1.01786 465 325)"/><path d="M38.5 19.25C39.3167 19.25 40.1917 19.1333 41.0083 18.9 41.3 18.8417 41.5333 18.4917 41.4167 18.2 41.3583 17.9083 41.0083 17.675 40.7167 17.7917 40.7167 17.7917 40.7167 17.7917 40.7167 17.7917 37.8 18.6667 34.65 17.675 32.6667 15.4 32.4917 15.1667 32.0833 15.1083 31.85 15.3417 31.6167 15.5167 31.5583 15.925 31.7917 16.1583 31.7917 16.1583 31.7917 16.1583 31.7917 16.1583 33.425 18.0833 35.875 19.25 38.5 19.25Z" transform="matrix(1 0 0 1.01786 465 325)"/><path d="M40.5417 26.1917C38.5 27.65 35.6417 27.1833 34.125 25.1417 33.7167 24.5583 33.425 23.9167 33.3083 23.2167 33.25 22.925 32.9583 22.6917 32.6083 22.75 32.2583 22.8083 32.0833 23.1 32.1417 23.45L32.1417 23.45C32.55 26.075 34.825 28.1167 37.5083 28.2333 37.625 28.2333 37.7417 28.2333 37.8583 28.2333 39.0833 28.2333 40.25 27.8833 41.2417 27.125 41.475 26.95 41.5333 26.5417 41.3583 26.3083 41.1833 26.0167 40.8333 25.9583 40.5417 26.1917L40.5417 26.1917Z" transform="matrix(1 0 0 1.01786 465 325)"/><path d="M28 33.25C23.275 33.25 19.3083 36.75 18.725 41.4167L37.2167 41.4167C36.6333 36.75 32.6667 33.25 28 33.25ZM20.1833 40.25C21.4667 35.9333 26.0167 33.4833 30.3333 34.7667 32.9583 35.525 35.0583 37.625 35.8167 40.25L20.1833 40.25Z" transform="matrix(1 0 0 1.01786 465 325)"/><path d="M23.7417 23.3917C23.8 23.1 23.5667 22.75 23.275 22.6917 22.9833 22.6333 22.6333 22.8667 22.575 23.1583 22.1667 25.6667 19.775 27.3583 17.2667 26.8917 16.5667 26.775 15.925 26.4833 15.3417 26.075 15.05 25.9 14.7 25.9583 14.525 26.25 14.35 26.4833 14.4083 26.8333 14.6417 27.0667 15.6333 27.7667 16.8 28.175 18.025 28.175 18.1417 28.175 18.2583 28.175 18.375 28.175 21.1167 28.0583 23.3333 26.075 23.7417 23.3917Z" transform="matrix(1 0 0 1.01786 465 325)"/></g></svg>