<svg width="57" height="57" xmlns="http://www.w3.org/2000/svg" xmlns:xlink="http://www.w3.org/1999/xlink" xml:space="preserve" overflow="hidden"><g transform="translate(-779 -325)"><path d="M807.5 330.938C795.039 330.938 784.938 341.039 784.938 353.5 784.938 365.961 795.039 376.062 807.5 376.062 819.961 376.062 830.062 365.961 830.062 353.5 830.062 341.039 819.961 330.938 807.5 330.938ZM807.5 374.875C795.695 374.875 786.125 365.305 786.125 353.5 786.125 341.695 795.695 332.125 807.5 332.125 819.305 332.125 828.875 341.695 828.875 353.5 828.862 365.3 819.3 374.862 807.5 374.875Z"/><path d="M801.562 351.719C801.562 349.751 799.968 348.156 798 348.156 796.032 348.156 794.438 349.751 794.438 351.719 794.438 353.686 796.032 355.281 798 355.281 799.968 355.281 801.562 353.686 801.562 351.719ZM798 354.094C796.688 354.094 795.625 353.03 795.625 351.719 795.625 350.407 796.688 349.344 798 349.344 799.312 349.344 800.375 350.407 800.375 351.719 800.373 353.03 799.311 354.092 798 354.094Z"/><path d="M817 348.156C815.032 348.156 813.438 349.751 813.438 351.719 813.438 353.686 815.032 355.281 817 355.281 818.968 355.281 820.562 353.686 820.562 351.719 820.562 349.751 818.968 348.156 817 348.156ZM817 354.094C815.688 354.094 814.625 353.03 814.625 351.719 814.625 350.407 815.688 349.344 817 349.344 818.312 349.344 819.375 350.407 819.375 351.719 819.375 353.03 818.312 354.094 817 354.094Z"/><path d="M814.625 363 800.375 363C800.047 363 799.781 363.266 799.781 363.594 799.781 363.922 800.047 364.188 800.375 364.188L814.625 364.188C814.953 364.188 815.219 363.922 815.219 363.594 815.219 363.266 814.953 363 814.625 363Z"/><path d="M802.453 345.188C802.453 344.86 802.187 344.594 801.859 344.594L794.141 344.594C793.813 344.594 793.547 344.86 793.547 345.188 793.547 345.515 793.813 345.781 794.141 345.781L801.859 345.781C802.187 345.781 802.453 345.515 802.453 345.188Z"/><path d="M820.859 344.594 813.141 344.594C812.813 344.594 812.547 344.86 812.547 345.188 812.547 345.515 812.813 345.781 813.141 345.781L820.859 345.781C821.187 345.781 821.453 345.515 821.453 345.188 821.453 344.86 821.187 344.594 820.859 344.594Z"/></g></svg>