<svg width="56" height="57" xmlns="http://www.w3.org/2000/svg" xmlns:xlink="http://www.w3.org/1999/xlink" xml:space="preserve" overflow="hidden"><g transform="translate(-780 -270)"><path d="M28 5.83333C15.75 5.83333 5.83333 15.75 5.83333 28 5.83333 40.25 15.75 50.1667 28 50.1667 40.25 50.1667 50.1667 40.25 50.1667 28 50.1667 15.75 40.25 5.83333 28 5.83333ZM28 49C16.3917 49 7 39.6083 7 28 7 16.3917 16.3917 7 28 7 39.6083 7 49 16.3917 49 28 49 39.6083 39.6083 49 28 49Z" transform="matrix(1 0 0 1.01786 780 270)"/><path d="M14.875 36.1667C18.4333 43.4 27.2417 46.375 34.475 42.8167 37.3917 41.4167 39.725 39.025 41.125 36.1667L14.875 36.1667ZM28 43.1667C23.5667 43.1667 19.425 41.0083 16.9167 37.3333L39.0833 37.3333C36.575 41.0083 32.4333 43.1667 28 43.1667L28 43.1667Z" transform="matrix(1 0 0 1.01786 780 270)"/><path d="M15.8083 28.8167C15.9833 29.1083 16.3333 29.1667 16.625 29.05L23.625 25.025C23.9167 24.85 23.975 24.5 23.8583 24.2083 23.8 24.0917 23.7417 24.0333 23.625 23.975L16.625 19.95C16.3333 19.775 15.9833 19.8917 15.8083 20.125 15.6333 20.4167 15.75 20.7667 15.9833 20.9417 15.9833 20.9417 15.9833 20.9417 15.9833 20.9417L22.1667 24.5C22.1667 24.5 22.1667 24.5 22.1667 24.5 22.1667 24.5 22.1667 24.5 22.1667 24.5L16.0417 28C15.75 28.175 15.6917 28.525 15.8083 28.8167Z" transform="matrix(1 0 0 1.01786 780 270)"/><path d="M32.375 25.025 39.375 28.9917C39.6667 29.1667 40.0167 29.05 40.1917 28.8167 40.3667 28.525 40.25 28.175 40.0167 28 40.0167 28 40.0167 28 40.0167 28L33.8333 24.5C33.8333 24.5 33.8333 24.5 33.8333 24.5 33.8333 24.5 33.8333 24.5 33.8333 24.5L39.9583 21C40.25 20.825 40.3667 20.475 40.1917 20.1833 40.0167 19.8917 39.6667 19.775 39.375 19.95 39.375 19.95 39.375 19.95 39.375 19.95L32.375 23.975C32.0833 24.15 32.025 24.5 32.1417 24.7917 32.2 24.9083 32.3167 24.9667 32.375 25.025L32.375 25.025Z" transform="matrix(1 0 0 1.01786 780 270)"/></g></svg>