<svg width="56" height="57" xmlns="http://www.w3.org/2000/svg" xmlns:xlink="http://www.w3.org/1999/xlink" xml:space="preserve" overflow="hidden"><g transform="translate(-465 -271)"><path d="M28 50.1667C40.2423 50.1667 50.1667 40.2423 50.1667 28 50.1667 15.7577 40.2423 5.83333 28 5.83333 15.7577 5.83333 5.83333 15.7577 5.83333 28 5.83333 40.2423 15.7577 50.1667 28 50.1667ZM28 7C39.5979 7 49 16.402 49 28 49 39.5979 39.5979 49 28 49 16.402 49 7 39.5979 7 28 7.01318 16.4075 16.4075 7.01318 28 7Z" transform="matrix(1 0 0 1.01786 465 271)"/><path d="M18.6667 22.75C16.7337 22.75 15.1667 24.317 15.1667 26.25 15.1667 28.183 16.7337 29.75 18.6667 29.75 20.5997 29.75 22.1667 28.183 22.1667 26.25 22.1667 24.317 20.5997 22.75 18.6667 22.75ZM18.6667 28.5833C17.378 28.5833 16.3333 27.5386 16.3333 26.25 16.3333 24.9614 17.378 23.9167 18.6667 23.9167 19.9553 23.9167 21 24.9614 21 26.25 20.9981 27.5379 19.9545 28.5814 18.6667 28.5833Z" transform="matrix(1 0 0 1.01786 465 271)"/><path d="M37.3333 22.75C35.4003 22.75 33.8333 24.317 33.8333 26.25 33.8333 28.183 35.4003 29.75 37.3333 29.75 39.2663 29.75 40.8333 28.183 40.8333 26.25 40.8333 24.317 39.2663 22.75 37.3333 22.75ZM37.3333 28.5833C36.0447 28.5833 35 27.5386 35 26.25 35 24.9614 36.0447 23.9167 37.3333 23.9167 38.622 23.9167 39.6667 24.9614 39.6667 26.25 39.6667 27.5386 38.622 28.5833 37.3333 28.5833Z" transform="matrix(1 0 0 1.01786 465 271)"/><path d="M15.3475 19.8689 22.2192 19.1969C22.5399 19.1647 22.7737 18.8786 22.7415 18.5579 22.7093 18.2372 22.4232 18.0033 22.1025 18.0355L15.1142 18.7197C14.7936 18.7519 14.5598 19.0379 14.592 19.3584 14.6219 19.6566 14.8728 19.8836 15.1725 19.8835Z" transform="matrix(1 0 0 1.01786 465 271)"/><path d="M33.7826 19.1969 40.6723 19.8712C40.6723 19.8712 40.8123 19.8835 40.831 19.8835 41.1532 19.8836 41.4144 19.6224 41.4144 19.3002 41.4144 19.0006 41.1875 18.7497 40.8893 18.7197L33.8963 18.0355C33.5756 18.0033 33.2895 18.2372 33.2573 18.5579 33.2251 18.8786 33.459 19.1647 33.7797 19.1969Z" transform="matrix(1 0 0 1.01786 465 271)"/><path d="M22.0448 39.7507C22.1548 39.9005 22.3296 39.9888 22.5155 39.9887 22.6398 39.988 22.7606 39.9471 22.8597 39.872 26.2098 37.4191 30.521 36.6913 34.4907 37.9085 34.7963 38.0106 35.1268 37.8458 35.229 37.5402 35.3311 37.2347 35.1662 36.9042 34.8607 36.802 34.8518 36.7991 34.8428 36.7963 34.8337 36.7938 30.5115 35.4674 25.8167 36.2602 22.1696 38.9322 21.9094 39.1222 21.8524 39.4871 22.0423 39.7473 22.0431 39.7484 22.0439 39.7496 22.0448 39.7507Z" transform="matrix(1 0 0 1.01786 465 271)"/></g></svg>